<svg id="svg" version="1.1" xmlns="http://www.w3.org/2000/svg" xmlns:xlink="http://www.w3.org/1999/xlink" width="400" height="225" viewBox="0, 0, 400,225"><g id="svgg"><path id="path0" d="M198.542 79.688 L 198.542 81.667 196.553 81.667 L 194.565 81.667 194.626 83.177 L 194.688 84.688 196.615 84.688 C 198.532 84.688,198.542 84.690,198.542 85.208 C 198.542 85.716,198.502 85.730,196.927 85.760 C 193.439 85.827,189.469 86.092,189.281 86.271 C 189.172 86.374,188.311 86.458,187.366 86.458 C 186.422 86.458,185.592 86.552,185.521 86.667 C 185.450 86.781,184.788 86.875,184.050 86.875 C 183.295 86.875,182.708 86.966,182.708 87.083 C 182.708 87.199,182.153 87.292,181.458 87.292 C 180.764 87.292,180.208 87.384,180.208 87.500 C 180.208 87.615,179.745 87.708,179.179 87.708 C 178.613 87.708,178.092 87.802,178.021 87.917 C 177.950 88.031,177.528 88.125,177.083 88.125 C 176.639 88.125,176.217 88.219,176.146 88.333 C 176.075 88.448,175.653 88.542,175.208 88.542 C 174.764 88.542,174.342 88.635,174.271 88.750 C 174.200 88.865,173.819 88.958,173.425 88.958 C 173.031 88.958,172.708 89.052,172.708 89.167 C 172.708 89.281,172.386 89.375,171.991 89.375 C 171.597 89.375,171.217 89.469,171.146 89.583 C 171.075 89.698,170.787 89.792,170.506 89.792 C 170.224 89.792,169.832 89.878,169.633 89.983 C 169.434 90.088,168.708 90.331,168.021 90.524 C 166.080 91.069,165.329 91.321,165.115 91.501 C 165.006 91.592,164.707 91.667,164.450 91.667 C 164.193 91.667,163.925 91.760,163.854 91.875 C 163.783 91.990,163.543 92.083,163.321 92.083 C 163.099 92.083,162.917 92.177,162.917 92.292 C 162.917 92.406,162.682 92.500,162.396 92.500 C 162.109 92.500,161.875 92.594,161.875 92.708 C 161.875 92.823,161.693 92.917,161.471 92.917 C 161.248 92.917,161.008 93.010,160.938 93.125 C 160.867 93.240,160.627 93.333,160.404 93.333 C 160.182 93.333,160.000 93.427,160.000 93.542 C 160.000 93.656,159.813 93.750,159.583 93.750 C 159.354 93.750,159.167 93.844,159.167 93.958 C 159.167 94.073,158.987 94.167,158.767 94.167 C 158.548 94.167,158.337 94.237,158.299 94.323 C 158.260 94.409,157.760 94.712,157.188 94.997 C 156.615 95.282,156.099 95.563,156.042 95.622 C 155.984 95.681,155.516 95.954,155.000 96.229 C 154.484 96.504,153.914 96.855,153.734 97.010 C 153.553 97.165,153.295 97.292,153.161 97.292 C 153.026 97.292,152.917 97.385,152.917 97.500 C 152.917 97.615,152.816 97.708,152.693 97.708 C 152.571 97.708,152.351 97.826,152.206 97.969 C 152.060 98.112,151.625 98.464,151.239 98.750 C 148.854 100.521,146.662 102.824,145.313 104.978 C 145.198 105.161,144.940 105.560,144.740 105.865 C 144.539 106.169,144.375 106.568,144.375 106.751 C 144.375 106.934,144.288 107.083,144.181 107.083 C 144.075 107.083,143.957 107.294,143.921 107.552 C 143.857 107.998,143.744 108.026,141.563 108.125 L 139.271 108.229 139.210 109.740 L 139.148 111.250 140.928 111.250 L 142.708 111.250 142.708 113.229 C 142.708 114.410,142.792 115.208,142.917 115.208 C 143.031 115.208,143.125 115.578,143.125 116.029 C 143.125 116.481,143.219 116.908,143.333 116.979 C 143.448 117.050,143.542 117.331,143.542 117.604 C 143.542 117.877,143.635 118.158,143.750 118.229 C 143.865 118.300,143.958 118.540,143.958 118.762 C 143.958 118.985,144.052 119.167,144.167 119.167 C 144.281 119.167,144.375 119.354,144.375 119.583 C 144.375 119.813,144.469 120.000,144.583 120.000 C 144.698 120.000,144.792 120.101,144.792 120.225 C 144.792 121.104,148.572 125.442,150.833 127.160 C 152.396 128.346,155.573 130.417,155.831 130.417 C 155.947 130.417,156.042 130.510,156.042 130.625 C 156.042 130.740,156.229 130.833,156.458 130.833 C 156.688 130.833,156.875 130.910,156.875 131.003 C 156.875 131.096,157.203 131.301,157.604 131.458 C 158.005 131.616,158.333 131.821,158.333 131.914 C 158.333 132.007,158.521 132.083,158.750 132.083 C 158.979 132.083,159.167 132.177,159.167 132.292 C 159.167 132.406,159.298 132.500,159.459 132.500 C 159.621 132.500,160.160 132.701,160.657 132.946 C 161.155 133.192,161.750 133.463,161.979 133.550 C 162.208 133.637,162.738 133.858,163.156 134.041 C 163.575 134.225,164.068 134.375,164.253 134.375 C 164.438 134.375,164.775 134.469,165.003 134.583 C 165.230 134.698,165.603 134.885,165.831 135.000 C 166.058 135.115,166.428 135.208,166.652 135.208 C 166.876 135.208,167.117 135.302,167.188 135.417 C 167.258 135.531,167.540 135.625,167.813 135.625 C 168.085 135.625,168.367 135.719,168.438 135.833 C 168.508 135.948,168.842 136.042,169.179 136.042 C 169.516 136.042,169.792 136.135,169.792 136.250 C 169.792 136.365,170.120 136.458,170.521 136.458 C 170.922 136.458,171.250 136.552,171.250 136.667 C 171.250 136.781,171.578 136.875,171.979 136.875 C 172.380 136.875,172.708 136.969,172.708 137.083 C 172.708 137.198,173.083 137.292,173.542 137.292 C 174.000 137.292,174.375 137.385,174.375 137.500 C 174.375 137.615,174.744 137.708,175.196 137.708 C 175.648 137.708,176.075 137.802,176.146 137.917 C 176.217 138.031,176.691 138.125,177.200 138.125 C 177.709 138.125,178.125 138.219,178.125 138.333 C 178.125 138.448,178.588 138.542,179.154 138.542 C 179.721 138.542,180.242 138.635,180.313 138.750 C 180.383 138.865,180.946 138.958,181.563 138.958 C 182.179 138.958,182.734 139.040,182.795 139.139 C 182.857 139.238,183.589 139.377,184.422 139.447 C 185.256 139.517,186.734 139.665,187.708 139.774 C 188.682 139.884,190.528 139.980,191.811 139.987 C 193.125 139.994,194.198 140.091,194.271 140.208 C 194.344 140.327,195.384 140.417,196.679 140.417 L 198.958 140.417 198.965 141.302 C 198.975 142.631,199.294 142.917,200.772 142.917 C 202.079 142.917,202.708 142.556,202.708 141.807 C 202.708 141.615,202.813 141.458,202.941 141.458 C 203.075 141.458,203.132 141.243,203.076 140.950 L 202.979 140.441 205.292 140.337 C 210.579 140.099,214.770 139.812,216.042 139.602 C 217.545 139.354,218.704 139.204,220.417 139.035 C 221.047 138.973,221.652 138.836,221.760 138.732 C 221.869 138.627,222.356 138.542,222.842 138.542 C 223.328 138.542,223.783 138.448,223.854 138.333 C 223.925 138.219,224.399 138.125,224.908 138.125 C 225.417 138.125,225.833 138.031,225.833 137.917 C 225.833 137.802,226.203 137.708,226.654 137.708 C 227.106 137.708,227.533 137.615,227.604 137.500 C 227.675 137.385,228.050 137.292,228.438 137.292 C 228.825 137.292,229.200 137.198,229.271 137.083 C 229.342 136.969,229.722 136.875,230.116 136.875 C 230.511 136.875,230.833 136.781,230.833 136.667 C 230.833 136.552,231.109 136.458,231.446 136.458 C 231.783 136.458,232.117 136.365,232.188 136.250 C 232.258 136.135,232.592 136.042,232.929 136.042 C 233.266 136.042,233.542 135.948,233.542 135.833 C 233.542 135.719,233.823 135.625,234.167 135.625 C 234.510 135.625,234.792 135.531,234.792 135.417 C 234.792 135.302,235.021 135.208,235.300 135.208 C 235.580 135.208,235.867 135.115,235.938 135.000 C 236.008 134.885,236.276 134.792,236.533 134.792 C 236.790 134.792,237.089 134.717,237.198 134.626 C 237.307 134.535,237.958 134.281,238.646 134.062 C 239.333 133.843,240.203 133.496,240.579 133.290 C 240.955 133.085,241.400 132.917,241.569 132.917 C 241.737 132.917,241.875 132.823,241.875 132.708 C 241.875 132.594,242.007 132.500,242.168 132.500 C 242.515 132.500,244.240 131.631,244.340 131.406 C 244.378 131.320,244.589 131.250,244.809 131.250 C 245.029 131.250,245.208 131.174,245.208 131.081 C 245.208 130.987,245.536 130.782,245.938 130.625 C 246.339 130.468,246.667 130.263,246.667 130.169 C 246.667 130.076,246.764 130.000,246.883 130.000 C 247.107 130.000,250.269 127.905,251.337 127.050 C 252.563 126.067,256.042 122.464,256.042 122.176 C 256.042 122.116,256.229 121.865,256.458 121.619 C 256.688 121.373,256.875 121.048,256.875 120.898 C 256.875 120.748,256.951 120.625,257.044 120.625 C 257.138 120.625,257.343 120.297,257.500 119.896 C 257.657 119.495,257.862 119.167,257.956 119.167 C 258.049 119.167,258.125 118.932,258.125 118.646 C 258.125 118.359,258.219 118.125,258.333 118.125 C 258.448 118.125,258.542 117.896,258.542 117.616 C 258.542 117.337,258.635 117.050,258.750 116.979 C 258.865 116.908,258.958 116.486,258.958 116.042 C 258.958 115.597,259.052 115.175,259.167 115.104 C 259.281 115.033,259.375 114.653,259.375 114.260 L 259.375 113.545 260.864 115.016 L 262.353 116.488 263.462 115.393 C 264.741 114.130,264.826 114.416,262.467 112.064 L 260.872 110.473 262.519 108.835 C 264.431 106.934,264.466 106.778,263.265 105.524 C 262.126 104.336,262.324 104.282,260.338 106.320 C 258.695 108.007,258.125 108.306,258.125 107.483 C 258.125 107.263,258.031 107.083,257.917 107.083 C 257.802 107.083,257.708 106.896,257.708 106.667 C 257.708 106.438,257.615 106.250,257.500 106.250 C 257.385 106.250,257.292 106.150,257.292 106.027 C 257.292 105.824,256.432 104.484,255.634 103.444 C 255.025 102.649,251.771 99.379,251.587 99.377 C 251.486 99.376,251.251 99.201,251.066 98.988 C 250.652 98.512,247.098 96.164,246.065 95.684 C 245.651 95.492,245.266 95.280,245.208 95.214 C 245.016 94.993,241.566 93.330,241.302 93.332 C 241.159 93.333,241.042 93.240,241.042 93.125 C 241.042 93.010,240.900 92.917,240.726 92.917 C 240.553 92.917,240.248 92.834,240.049 92.733 C 239.692 92.551,238.931 92.225,237.917 91.819 C 237.630 91.705,237.208 91.533,236.979 91.438 C 236.750 91.344,236.047 91.114,235.417 90.929 C 234.786 90.743,234.055 90.505,233.792 90.400 C 233.529 90.295,233.084 90.208,232.803 90.208 C 232.522 90.208,232.292 90.115,232.292 90.000 C 232.292 89.885,232.016 89.792,231.679 89.792 C 231.342 89.792,231.008 89.698,230.938 89.583 C 230.867 89.469,230.486 89.375,230.092 89.375 C 229.698 89.375,229.375 89.281,229.375 89.167 C 229.375 89.052,229.000 88.958,228.542 88.958 C 228.083 88.958,227.708 88.865,227.708 88.750 C 227.708 88.635,227.339 88.542,226.887 88.542 C 226.436 88.542,226.008 88.448,225.938 88.333 C 225.867 88.219,225.392 88.125,224.884 88.125 C 224.375 88.125,223.958 88.031,223.958 87.917 C 223.958 87.802,223.495 87.708,222.929 87.708 C 222.363 87.708,221.842 87.615,221.771 87.500 C 221.700 87.385,221.132 87.292,220.509 87.292 C 219.885 87.292,219.375 87.198,219.375 87.083 C 219.375 86.964,218.750 86.875,217.917 86.875 C 217.083 86.875,216.458 86.786,216.458 86.667 C 216.458 86.545,215.743 86.458,214.729 86.458 C 213.778 86.458,212.911 86.374,212.802 86.270 C 212.693 86.167,211.245 86.020,209.583 85.944 C 202.477 85.620,201.773 85.549,201.742 85.156 C 201.717 84.836,201.922 84.792,203.419 84.792 C 205.422 84.792,205.625 84.655,205.625 83.309 C 205.625 81.682,205.606 81.667,203.571 81.667 L 201.771 81.668 201.839 79.867 C 201.920 77.734,201.904 77.716,199.948 77.712 L 198.542 77.708 198.542 79.688 M198.788 87.656 C 198.851 88.199,198.918 88.232,200.052 88.292 L 201.250 88.354 201.250 87.686 L 201.250 87.017 205.573 87.149 C 212.744 87.368,220.070 88.273,226.250 89.705 C 229.098 90.364,229.494 90.461,230.000 90.623 C 230.286 90.715,231.224 90.995,232.083 91.247 C 239.056 93.284,245.327 96.255,249.873 99.677 C 252.157 101.396,255.710 105.208,255.028 105.208 C 254.921 105.208,254.497 105.545,254.086 105.956 C 253.185 106.857,253.191 106.873,255.194 108.849 C 257.001 110.631,257.023 110.363,254.901 112.496 L 253.134 114.271 253.888 115.070 L 254.643 115.868 256.128 114.392 C 257.890 112.642,257.917 112.635,257.917 113.910 C 257.917 121.835,246.658 130.981,231.927 135.023 C 231.555 135.125,230.945 135.294,230.573 135.399 C 228.357 136.021,227.350 136.269,225.104 136.741 C 220.924 137.620,217.084 138.191,211.354 138.784 C 208.000 139.132,194.076 139.125,190.625 138.775 C 175.099 137.198,164.125 134.065,155.348 128.703 C 147.539 123.933,143.266 117.525,144.128 111.875 L 144.271 110.938 146.042 110.833 C 147.809 110.729,147.813 110.728,147.881 110.131 C 148.038 108.753,147.835 108.542,146.350 108.542 C 144.785 108.542,144.798 108.574,145.659 106.906 C 147.723 102.904,153.356 98.096,159.178 95.366 C 169.935 90.324,183.625 87.321,196.809 87.113 L 198.722 87.083 198.788 87.656 M155.503 97.691 C 155.143 98.053,155.535 98.318,156.510 98.375 L 157.604 98.438 157.604 112.396 L 157.604 126.354 156.497 126.418 C 155.588 126.470,155.403 126.544,155.458 126.834 C 155.538 127.250,161.042 127.502,161.042 127.089 C 161.042 126.971,161.044 126.805,161.047 126.719 C 161.050 126.633,160.604 126.516,160.057 126.458 L 159.063 126.354 159.009 113.490 C 158.979 106.414,159.030 100.625,159.121 100.625 C 159.213 100.625,159.541 101.586,159.850 102.760 C 160.160 103.935,160.608 105.599,160.846 106.458 C 161.301 108.101,161.626 109.286,162.188 111.354 C 162.374 112.042,162.656 113.073,162.813 113.646 C 162.970 114.219,163.439 115.953,163.854 117.500 C 164.736 120.785,165.023 121.835,165.617 123.958 C 165.857 124.818,166.110 125.824,166.179 126.195 C 166.371 127.235,166.597 127.311,169.288 127.246 L 171.745 127.188 172.193 125.417 C 172.439 124.443,172.744 123.177,172.871 122.604 C 172.998 122.031,173.337 120.578,173.625 119.375 C 174.057 117.570,175.165 112.783,176.494 106.979 C 176.625 106.406,176.894 105.281,177.091 104.479 C 177.288 103.677,177.574 102.435,177.726 101.719 C 177.878 101.003,178.078 100.417,178.170 100.417 C 178.261 100.417,178.312 106.253,178.283 113.385 L 178.229 126.354 177.122 126.418 C 176.213 126.470,176.028 126.544,176.084 126.834 C 176.190 127.387,188.604 127.376,188.710 126.823 C 188.769 126.521,188.625 126.458,187.869 126.458 C 186.367 126.458,186.458 127.366,186.458 112.396 C 186.458 97.426,186.367 98.333,187.869 98.333 C 188.625 98.333,188.769 98.271,188.710 97.969 C 188.672 97.768,188.524 97.614,188.383 97.625 C 188.241 97.636,185.745 97.660,182.837 97.677 L 177.549 97.708 177.112 99.531 C 176.872 100.534,176.156 103.604,175.522 106.354 C 174.887 109.104,174.229 111.940,174.059 112.656 C 173.889 113.372,173.604 114.591,173.425 115.365 C 172.734 118.358,172.625 118.750,172.485 118.750 C 172.405 118.750,172.292 118.539,172.233 118.281 C 172.090 117.652,170.161 110.171,169.239 106.667 C 168.832 105.120,168.155 102.495,167.734 100.833 L 166.970 97.813 161.280 97.708 C 158.150 97.651,155.551 97.643,155.503 97.691 M197.240 97.659 C 191.736 97.707,190.833 97.758,190.833 98.024 C 190.833 98.251,191.078 98.333,191.754 98.333 C 193.490 98.333,193.333 96.963,193.333 112.193 C 193.333 127.678,193.452 126.458,191.942 126.458 C 190.969 126.458,190.813 126.512,190.873 126.823 C 190.991 127.435,203.958 127.489,203.958 126.878 C 203.958 126.508,203.822 126.458,202.810 126.458 L 201.661 126.458 201.716 119.531 L 201.771 112.604 205.417 112.545 C 207.422 112.512,209.275 112.538,209.534 112.602 L 210.006 112.718 209.951 119.536 L 209.896 126.354 208.685 126.417 C 207.676 126.469,207.485 126.539,207.542 126.834 C 207.648 127.387,220.479 127.377,220.585 126.823 C 220.644 126.516,220.495 126.458,219.640 126.458 C 218.017 126.458,218.125 127.464,218.125 112.361 C 218.125 97.013,217.971 98.333,219.766 98.333 C 220.584 98.333,221.037 98.067,220.638 97.821 C 220.490 97.729,211.908 97.652,207.760 97.705 C 207.617 97.707,207.500 97.849,207.500 98.021 C 207.500 98.254,207.750 98.334,208.490 98.337 C 210.099 98.342,210.013 97.946,209.951 105.014 L 209.896 111.354 205.778 111.411 L 201.661 111.467 201.716 104.952 L 201.771 98.438 202.865 98.375 C 203.629 98.331,203.958 98.224,203.958 98.022 C 203.958 97.591,204.122 97.600,197.240 97.659 M223.459 110.590 C 223.236 110.951,223.070 113.542,223.269 113.542 C 223.381 113.542,223.776 113.072,224.147 112.499 C 225.570 110.303,225.641 110.444,225.577 115.355 C 225.527 119.249,225.485 119.688,225.171 119.690 C 224.979 119.692,224.752 119.762,224.667 119.846 C 224.583 119.931,225.754 120.000,227.269 120.000 C 229.053 120.000,229.979 119.927,229.896 119.792 C 229.825 119.677,229.585 119.583,229.363 119.583 C 228.976 119.583,228.958 119.401,228.958 115.313 C 228.958 112.882,229.040 111.042,229.148 111.042 C 229.395 111.042,230.345 112.175,230.742 112.942 C 231.367 114.149,231.813 112.418,231.255 110.951 L 231.052 110.417 227.309 110.417 C 225.251 110.417,223.518 110.495,223.459 110.590 M232.525 110.605 C 232.298 110.749,232.332 110.818,232.681 110.929 C 233.309 111.128,233.384 119.412,232.760 119.775 C 232.485 119.935,232.702 119.984,233.646 119.973 C 234.494 119.963,234.728 119.912,234.375 119.814 L 233.854 119.669 233.797 115.837 C 233.766 113.729,233.808 112.071,233.890 112.154 C 233.972 112.236,234.568 114.012,235.214 116.100 L 236.389 119.896 237.237 119.959 C 238.169 120.028,238.105 120.126,238.783 117.604 C 238.906 117.146,239.079 116.536,239.167 116.250 C 239.255 115.964,239.441 115.307,239.581 114.792 C 239.721 114.276,239.919 113.639,240.022 113.376 C 240.124 113.112,240.208 112.708,240.208 112.478 C 240.208 112.247,240.302 112.117,240.417 112.188 C 240.914 112.495,240.671 119.578,240.156 119.785 C 239.838 119.913,240.490 119.974,242.188 119.974 C 243.885 119.974,244.537 119.913,244.219 119.785 C 243.754 119.599,243.750 119.557,243.750 115.419 L 243.750 111.241 244.277 111.001 C 245.107 110.623,244.494 110.423,242.500 110.423 C 240.339 110.423,240.309 110.441,239.887 111.986 C 239.700 112.670,239.454 113.557,239.340 113.958 C 239.226 114.359,239.083 114.945,239.022 115.260 C 238.794 116.440,238.492 115.918,237.618 112.840 C 237.330 111.825,236.987 110.864,236.855 110.705 C 236.581 110.375,233.018 110.293,232.525 110.605 M199.591 131.081 C 198.630 132.113,199.426 133.958,200.833 133.958 C 202.184 133.958,202.985 132.244,202.176 131.088 C 201.720 130.437,200.195 130.433,199.591 131.081 M195.260 135.346 C 194.854 135.510,194.914 137.631,195.330 137.790 C 195.511 137.860,197.987 137.917,200.833 137.917 C 206.970 137.917,206.667 137.987,206.667 136.563 C 206.667 135.750,206.580 135.428,206.337 135.335 C 205.944 135.184,195.636 135.195,195.260 135.346 M182.341 153.790 L 182.396 161.563 183.229 161.563 L 184.063 161.563 184.119 157.552 L 184.176 153.542 185.041 152.969 C 186.167 152.224,187.483 152.182,188.171 152.870 C 188.625 153.323,188.650 153.524,188.750 157.453 L 188.854 161.563 189.688 161.563 L 190.521 161.563 190.575 157.292 C 190.622 153.556,190.583 152.931,190.262 152.306 C 189.391 150.608,187.410 150.159,185.370 151.198 L 184.178 151.805 184.120 148.975 L 184.063 146.146 183.175 146.082 L 182.287 146.017 182.341 153.790 M146.250 154.387 L 146.250 161.691 147.135 161.627 L 148.021 161.563 148.125 156.023 L 148.229 150.484 150.311 154.106 L 152.393 157.727 153.223 157.666 L 154.053 157.604 156.085 154.074 L 158.118 150.543 158.174 156.053 L 158.229 161.563 159.167 161.563 L 160.104 161.563 160.104 154.375 L 160.104 147.188 158.932 147.126 L 157.760 147.064 155.878 150.355 C 154.843 152.165,153.828 154.001,153.622 154.435 L 153.249 155.224 152.953 154.643 C 152.288 153.337,149.074 147.786,148.786 147.448 C 148.563 147.185,148.167 147.083,147.364 147.083 L 146.250 147.083 146.250 154.387 M199.216 154.323 L 199.271 161.563 200.156 161.627 L 201.042 161.691 201.042 158.345 L 201.042 155.000 204.792 155.000 L 208.542 155.000 208.542 158.333 L 208.542 161.667 209.479 161.667 L 210.417 161.667 210.417 154.375 L 210.417 147.083 209.479 147.083 L 208.542 147.083 208.542 150.208 L 208.542 153.333 204.792 153.333 L 201.042 153.333 201.042 150.208 L 201.042 147.083 200.101 147.083 L 199.161 147.083 199.216 154.323 M175.767 148.281 C 175.718 148.367,175.612 148.971,175.533 149.623 C 175.395 150.769,175.367 150.811,174.726 150.873 C 173.514 150.991,173.719 152.488,174.948 152.497 C 175.416 152.500,175.417 152.504,175.417 156.156 C 175.417 160.858,175.918 161.872,178.241 161.874 C 180.052 161.876,180.478 160.297,178.702 160.168 C 177.415 160.074,177.298 159.712,177.295 155.781 L 177.292 152.500 178.204 152.500 C 180.035 152.500,180.205 150.979,178.385 150.875 L 177.292 150.812 177.292 149.468 L 177.292 148.125 176.575 148.125 C 176.181 148.125,175.817 148.195,175.767 148.281 M165.693 150.830 C 163.789 151.234,163.164 151.903,163.835 152.821 C 164.123 153.216,164.143 153.216,165.241 152.816 C 167.745 151.905,169.792 152.511,169.792 154.163 C 169.792 154.738,169.745 154.767,168.594 154.887 C 164.306 155.337,162.916 156.252,162.917 158.625 C 162.920 161.623,167.411 163.119,169.495 160.815 C 169.861 160.411,169.870 160.415,170.137 161.050 C 170.575 162.090,171.775 161.891,171.760 160.781 C 171.755 160.352,171.731 158.420,171.708 156.489 C 171.647 151.282,170.160 149.884,165.693 150.830 M216.650 150.897 C 212.761 152.354,212.259 159.426,215.912 161.290 C 218.652 162.688,222.173 161.396,222.943 158.710 C 224.387 153.669,220.878 149.313,216.650 150.897 M238.534 151.094 C 235.895 152.424,236.345 155.485,239.326 156.477 C 241.645 157.248,242.382 158.345,241.372 159.520 C 240.752 160.240,239.312 160.317,238.045 159.697 C 236.665 159.022,236.068 160.507,237.406 161.286 C 239.954 162.770,243.449 161.395,243.697 158.812 C 243.885 156.856,243.050 155.819,240.678 155.064 C 237.788 154.144,238.559 151.737,241.501 152.491 C 242.697 152.797,243.184 152.549,243.083 151.684 C 242.959 150.613,240.198 150.254,238.534 151.094 M248.700 150.921 C 245.314 152.130,244.348 158.563,247.215 160.817 C 249.587 162.683,255.767 161.699,254.298 159.689 C 254.020 159.309,253.976 159.310,252.627 159.754 C 250.286 160.522,248.784 160.160,248.105 158.665 C 247.367 157.040,247.286 157.083,251.030 157.083 C 254.892 157.083,255.023 157.020,254.852 155.252 C 254.495 151.573,251.931 149.768,248.700 150.921 M225.834 155.144 C 225.834 160.205,225.945 160.626,227.492 161.406 C 228.980 162.156,231.162 161.844,232.066 160.751 C 232.338 160.423,232.383 160.446,232.635 161.044 C 233.101 162.153,234.274 161.889,234.261 160.677 C 234.256 160.190,234.233 157.771,234.209 155.301 L 234.167 150.809 233.281 150.873 L 232.396 150.938 232.339 154.923 L 232.283 158.908 231.469 159.472 C 230.278 160.297,229.192 160.389,228.423 159.728 L 227.813 159.204 227.708 155.071 L 227.604 150.938 226.719 150.873 L 225.833 150.809 225.834 155.144 M219.899 152.796 C 222.070 154.218,221.546 159.312,219.155 160.028 C 216.969 160.683,215.761 159.446,215.667 156.458 C 215.559 152.965,217.541 151.250,219.899 152.796 M252.000 152.936 C 252.451 153.360,252.912 154.478,252.916 155.156 C 252.916 155.351,252.252 155.417,250.285 155.417 L 247.654 155.417 247.776 154.665 C 248.115 152.572,250.551 151.575,252.000 152.936 M169.790 157.656 C 169.788 159.714,166.658 161.070,165.320 159.592 C 163.995 158.127,165.753 156.556,168.802 156.482 L 169.792 156.458 169.790 157.656 " stroke="none" fill="#f70909" fill-rule="evenodd"></path><path id="path1" d="M192.408 87.311 C 179.855 88.159,168.877 90.819,159.178 95.366 C 153.356 98.096,147.723 102.904,145.659 106.906 C 144.798 108.574,144.785 108.542,146.350 108.542 C 147.835 108.542,148.038 108.753,147.881 110.131 C 147.813 110.728,147.809 110.729,146.042 110.833 L 144.271 110.938 144.128 111.875 C 142.929 119.738,151.330 128.350,165.104 133.377 C 172.790 136.183,179.891 137.685,190.625 138.775 C 194.076 139.125,208.000 139.132,211.354 138.784 C 217.084 138.191,220.924 137.620,225.104 136.741 C 227.350 136.269,228.357 136.021,230.573 135.399 C 230.945 135.294,231.555 135.125,231.927 135.023 C 246.658 130.981,257.917 121.835,257.917 113.910 C 257.917 112.635,257.890 112.642,256.128 114.392 L 254.643 115.868 253.888 115.070 L 253.134 114.271 254.901 112.496 C 257.023 110.363,257.001 110.631,255.194 108.849 C 253.191 106.873,253.185 106.857,254.086 105.956 C 254.497 105.545,254.921 105.208,255.028 105.208 C 255.710 105.208,252.157 101.396,249.873 99.677 C 245.327 96.255,239.056 93.284,232.083 91.247 C 231.224 90.995,230.286 90.715,230.000 90.623 C 229.494 90.461,229.098 90.364,226.250 89.705 C 220.070 88.273,212.744 87.368,205.573 87.149 L 201.250 87.017 201.250 87.686 L 201.250 88.354 200.052 88.292 C 198.918 88.232,198.851 88.199,198.788 87.656 L 198.722 87.083 196.809 87.113 C 195.757 87.130,193.776 87.219,192.408 87.311 M167.734 100.833 C 168.155 102.495,168.832 105.120,169.239 106.667 C 170.161 110.171,172.090 117.652,172.233 118.281 C 172.292 118.539,172.405 118.750,172.485 118.750 C 172.625 118.750,172.734 118.358,173.425 115.365 C 173.604 114.591,173.889 113.372,174.059 112.656 C 174.229 111.940,174.887 109.104,175.522 106.354 C 176.156 103.604,176.872 100.534,177.112 99.531 L 177.549 97.708 182.837 97.677 C 185.745 97.660,188.241 97.636,188.383 97.625 C 188.524 97.614,188.672 97.768,188.710 97.969 C 188.769 98.271,188.625 98.333,187.869 98.333 C 186.367 98.333,186.458 97.426,186.458 112.396 C 186.458 127.366,186.367 126.458,187.869 126.458 C 188.625 126.458,188.769 126.521,188.710 126.823 C 188.604 127.376,176.190 127.387,176.084 126.834 C 176.028 126.544,176.213 126.470,177.122 126.418 L 178.229 126.354 178.283 113.385 C 178.312 106.253,178.261 100.417,178.170 100.417 C 178.078 100.417,177.878 101.003,177.726 101.719 C 177.574 102.435,177.288 103.677,177.091 104.479 C 176.894 105.281,176.625 106.406,176.494 106.979 C 175.165 112.783,174.057 117.570,173.625 119.375 C 173.337 120.578,172.998 122.031,172.871 122.604 C 172.744 123.177,172.439 124.443,172.193 125.417 L 171.745 127.188 169.288 127.246 C 166.597 127.311,166.371 127.235,166.179 126.195 C 166.110 125.824,165.857 124.818,165.617 123.958 C 165.023 121.835,164.736 120.785,163.854 117.500 C 163.439 115.953,162.970 114.219,162.813 113.646 C 162.656 113.073,162.374 112.042,162.188 111.354 C 161.626 109.286,161.301 108.101,160.846 106.458 C 160.608 105.599,160.160 103.935,159.850 102.760 C 159.541 101.586,159.213 100.625,159.121 100.625 C 159.030 100.625,158.979 106.414,159.009 113.490 L 159.063 126.354 160.057 126.458 C 160.604 126.516,161.050 126.633,161.047 126.719 C 161.044 126.805,161.042 126.971,161.042 127.089 C 161.042 127.502,155.538 127.250,155.458 126.834 C 155.403 126.544,155.588 126.470,156.497 126.418 L 157.604 126.354 157.604 112.396 L 157.604 98.438 156.510 98.375 C 155.535 98.318,155.143 98.053,155.503 97.691 C 155.551 97.643,158.150 97.651,161.280 97.708 L 166.970 97.813 167.734 100.833 M203.958 98.022 C 203.958 98.224,203.629 98.331,202.865 98.375 L 201.771 98.438 201.716 104.952 L 201.661 111.467 205.778 111.411 L 209.896 111.354 209.951 105.014 C 210.013 97.946,210.099 98.342,208.490 98.337 C 207.750 98.334,207.500 98.254,207.500 98.021 C 207.500 97.849,207.617 97.707,207.760 97.705 C 211.908 97.652,220.490 97.729,220.638 97.821 C 221.037 98.067,220.584 98.333,219.766 98.333 C 217.971 98.333,218.125 97.013,218.125 112.361 C 218.125 127.464,218.017 126.458,219.640 126.458 C 220.495 126.458,220.644 126.516,220.585 126.823 C 220.479 127.377,207.648 127.387,207.542 126.834 C 207.485 126.539,207.676 126.469,208.685 126.417 L 209.896 126.354 209.951 119.536 L 210.006 112.718 209.534 112.602 C 209.275 112.538,207.422 112.512,205.417 112.545 L 201.771 112.604 201.716 119.531 L 201.661 126.458 202.810 126.458 C 203.822 126.458,203.958 126.508,203.958 126.878 C 203.958 127.489,190.991 127.435,190.873 126.823 C 190.813 126.512,190.969 126.458,191.942 126.458 C 193.452 126.458,193.333 127.678,193.333 112.193 C 193.333 96.963,193.490 98.333,191.754 98.333 C 191.078 98.333,190.833 98.251,190.833 98.024 C 190.833 97.758,191.736 97.707,197.240 97.659 C 204.122 97.600,203.958 97.591,203.958 98.022 M231.255 110.951 C 231.813 112.418,231.367 114.149,230.742 112.942 C 230.345 112.175,229.395 111.042,229.148 111.042 C 229.040 111.042,228.958 112.882,228.958 115.313 C 228.958 119.401,228.976 119.583,229.363 119.583 C 229.585 119.583,229.825 119.677,229.896 119.792 C 229.979 119.927,229.053 120.000,227.269 120.000 C 225.754 120.000,224.583 119.931,224.667 119.846 C 224.752 119.762,224.979 119.692,225.171 119.690 C 225.485 119.688,225.527 119.249,225.577 115.355 C 225.641 110.444,225.570 110.303,224.147 112.499 C 223.776 113.072,223.381 113.542,223.269 113.542 C 223.070 113.542,223.236 110.951,223.459 110.590 C 223.518 110.495,225.251 110.417,227.309 110.417 L 231.052 110.417 231.255 110.951 M236.855 110.705 C 236.987 110.864,237.330 111.825,237.618 112.840 C 238.251 115.069,238.540 115.833,238.752 115.833 C 238.839 115.833,238.961 115.576,239.022 115.260 C 239.083 114.945,239.226 114.359,239.340 113.958 C 239.454 113.557,239.700 112.670,239.887 111.986 C 240.309 110.441,240.339 110.423,242.500 110.423 C 244.494 110.423,245.107 110.623,244.277 111.001 L 243.750 111.241 243.750 115.419 C 243.750 119.557,243.754 119.599,244.219 119.785 C 244.537 119.913,243.885 119.974,242.188 119.974 C 240.490 119.974,239.838 119.913,240.156 119.785 C 240.671 119.578,240.914 112.495,240.417 112.188 C 240.302 112.117,240.208 112.247,240.208 112.478 C 240.208 112.708,240.124 113.112,240.022 113.376 C 239.919 113.639,239.721 114.276,239.581 114.792 C 239.441 115.307,239.255 115.964,239.167 116.250 C 239.079 116.536,238.906 117.146,238.783 117.604 C 238.105 120.126,238.169 120.028,237.237 119.959 L 236.389 119.896 235.214 116.100 C 234.568 114.012,233.972 112.236,233.890 112.154 C 233.808 112.071,233.766 113.729,233.797 115.837 L 233.854 119.669 234.375 119.814 C 234.728 119.912,234.494 119.963,233.646 119.973 C 232.702 119.984,232.485 119.935,232.760 119.775 C 233.384 119.412,233.309 111.128,232.681 110.929 C 231.824 110.657,232.758 110.423,234.714 110.420 C 236.083 110.418,236.683 110.497,236.855 110.705 M202.176 131.088 C 202.985 132.244,202.184 133.958,200.833 133.958 C 199.426 133.958,198.630 132.113,199.591 131.081 C 200.195 130.433,201.720 130.437,202.176 131.088 M206.337 135.335 C 206.580 135.428,206.667 135.750,206.667 136.563 C 206.667 137.987,206.970 137.917,200.833 137.917 C 197.987 137.917,195.511 137.860,195.330 137.790 C 194.914 137.631,194.854 135.510,195.260 135.346 C 195.636 135.195,205.944 135.184,206.337 135.335 " stroke="none" fill="#f4f3f3" fill-rule="evenodd"></path></g></svg>